<svg width="316" height="235" viewBox="0 0 316 235" fill="none" xmlns="http://www.w3.org/2000/svg">
<path fill-rule="evenodd" clip-rule="evenodd" d="M158 157.599C158 166.183 164.935 173.142 173.49 173.142L173.29 173.143C164.893 173.249 158.107 180.059 158.001 188.485L158 188.684C158 180.167 151.173 173.25 142.71 173.143L142.51 173.142C151.065 173.142 158 166.183 158 157.599ZM158 172.827C157.897 172.933 157.792 173.038 157.687 173.142C157.792 173.245 157.896 173.35 158 173.456C158.103 173.35 158.208 173.245 158.313 173.141C158.208 173.038 158.103 172.933 158 172.827Z" fill="black"/>
<path fill-rule="evenodd" clip-rule="evenodd" d="M158.001 102.159C158.108 110.65 165.002 117.5 173.49 117.5C165.002 117.5 158.108 124.35 158.001 132.842L158 133.042C158 124.459 151.065 117.5 142.51 117.5C151.065 117.5 158 110.541 158 101.958L158.001 102.159ZM158 117.185C157.897 117.291 157.792 117.396 157.687 117.5C157.792 117.604 157.897 117.708 158 117.814C158.103 117.708 158.208 117.604 158.313 117.5C158.208 117.396 158.103 117.291 158 117.185Z" fill="black"/>
<path d="M82.098 101.958C82.098 110.541 89.0332 117.5 97.5882 117.5H66.6078C75.1628 117.5 82.098 110.541 82.098 101.958Z" fill="black"/>
<path d="M158 77.4008C158 68.8841 151.173 61.9674 142.71 61.8598L142.51 61.8584C151.065 61.8584 158 54.8999 158 46.3161V77.4008Z" fill="black"/>
<path fill-rule="evenodd" clip-rule="evenodd" d="M233.902 46.3161C233.902 54.8328 240.729 61.7497 249.192 61.8572L249.392 61.8584C240.837 61.8584 233.902 68.8171 233.902 77.4008C233.902 68.8171 226.967 61.8585 218.412 61.8584L218.612 61.8572C227.075 61.7496 233.902 54.8328 233.902 46.3161ZM233.902 61.5437C233.799 61.6496 233.694 61.7545 233.589 61.8582C233.694 61.962 233.799 62.0668 233.902 62.1727C234.005 62.0669 234.11 61.962 234.215 61.8582C234.11 61.7545 234.005 61.6496 233.902 61.5437Z" fill="black"/>
<path fill-rule="evenodd" clip-rule="evenodd" d="M66.6078 0C72.676 0 78.1619 2.50078 82.098 6.53116C86.0341 2.50078 91.52 0 97.5882 0H142.51C148.578 1.16882e-05 154.064 2.50092 158 6.53136C161.936 2.50083 167.422 1.178e-05 173.49 0H294.314C306.197 3.76313e-05 315.848 9.59039 315.998 21.4779L316 21.7592V101.958C316 108.046 313.507 113.551 309.491 117.5C313.507 121.449 316 126.954 316 133.042V157.599C316 163.688 313.507 169.192 309.491 173.142C313.508 177.091 316 182.595 316 188.684V213.241C316 225.258 306.291 235 294.314 235H173.49C167.422 235 161.936 232.499 158 228.469C154.064 232.499 148.578 235 142.51 235H97.5882C91.52 235 86.0341 232.499 82.098 228.469C78.1619 232.499 72.676 235 66.6078 235H21.6862C9.70922 235 4.71531e-05 225.258 0 213.241V133.042C0 126.954 2.4924 121.449 6.50926 117.5C2.4924 113.551 0 108.046 0 101.958V77.4008C6.4872e-05 71.312 2.49245 65.8077 6.50946 61.8584C2.49254 57.909 0 52.4047 0 46.3161V21.7592C0.00011457 9.74207 9.70922 0 21.6862 0H66.6078ZM21.6862 6.21685C13.1313 6.21685 6.19609 13.1755 6.19601 21.7592V46.3161C6.19601 54.8999 13.1312 61.8584 21.6862 61.8584L21.4859 61.8598C13.0233 61.9674 6.1961 68.8841 6.19601 77.4008V101.958C6.19601 110.541 13.1312 117.5 21.6862 117.5C13.1312 117.5 6.19601 124.459 6.19601 133.042V213.241C6.19604 221.825 13.1312 228.783 21.6862 228.783H66.6078C75.1628 228.783 82.098 221.825 82.098 213.241C82.098 221.825 89.0332 228.783 97.5882 228.783H142.51C151.065 228.783 158 221.825 158 213.241L158.001 213.442C158.108 221.933 165.002 228.783 173.49 228.783H294.314C302.869 228.783 309.804 221.825 309.804 213.241V188.684C309.804 180.167 302.977 173.25 294.514 173.143L294.314 173.142C302.869 173.142 309.804 166.183 309.804 157.599V133.042C309.804 124.459 302.869 117.5 294.314 117.5C302.869 117.5 309.804 110.541 309.804 101.958V21.7592C309.804 13.1755 302.869 6.21688 294.314 6.21685H173.49C165.002 6.21687 158.108 13.0672 158.001 21.5584L158 21.7592C158 13.1755 151.065 6.21687 142.51 6.21685H97.5882C89.0333 6.21685 82.0981 13.1755 82.098 21.7592C82.0979 13.1755 75.1627 6.21685 66.6078 6.21685H21.6862Z" fill="black"/>
</svg>
