<svg width="158" height="118" viewBox="0 0 158 118" fill="none" xmlns="http://www.w3.org/2000/svg">
<path d="M152.664 71.7258C152.664 64.6977 146.967 59.0005 139.939 59.0005H17.816C10.7879 59.0005 5.09028 64.6977 5.09021 71.7258V100.185C5.09026 107.213 10.7879 112.91 17.816 112.91H66.1515C73.1796 112.91 78.8772 107.213 78.8773 100.185C78.8773 107.213 84.575 112.91 91.6031 112.91H139.939C146.967 112.91 152.664 107.213 152.664 100.185V71.7258ZM91.6031 5.09021C84.575 5.09021 78.8774 10.7875 78.8773 17.8155C78.8771 10.7875 73.1795 5.09021 66.1515 5.09021V0C71.137 0 75.6435 2.0486 78.8773 5.34901C82.111 2.0486 86.6175 0 91.6031 0V5.09021ZM139.939 0V5.09021H91.6031V0H139.939ZM66.1515 0V5.09021H17.816V0H66.1515ZM157.755 100.185C157.754 110.024 149.778 118 139.939 118H91.6031C86.6174 118 82.111 115.951 78.8773 112.65C75.6435 115.951 71.1371 118 66.1515 118H17.816C7.97688 118 6.29355e-05 110.024 0 100.185V71.7258C4.44447e-05 66.7401 2.0489 62.2336 5.34952 59C2.04894 55.7663 9.79287e-06 51.2598 0 46.2742V17.8155C0.000186824 7.97613 7.97687 0 17.816 0V5.09021C10.788 5.09021 5.09035 10.7875 5.09021 17.8155V46.2742C5.09023 53.3023 10.7879 59.0005 17.816 59.0005H139.939C146.967 59.0005 152.664 53.3023 152.664 46.2742V17.8155C152.664 10.7875 146.967 5.09021 139.939 5.09021V0C149.624 0 157.505 7.72883 157.749 17.3557L157.755 17.8155V46.2742C157.755 51.26 155.705 55.7662 152.404 59C155.705 62.2336 157.754 66.7399 157.755 71.7258V100.185Z" fill="black"/>
</svg>
