<svg width="163" height="119" viewBox="0 0 163 119" fill="none" xmlns="http://www.w3.org/2000/svg">
<path d="M64.1058 0C73.4958 0.00019861 81.1075 7.58528 81.1075 16.9416L81.1127 16.5046C81.3453 7.35009 88.8658 0.000195508 98.1092 0H145.212C154.603 0 162.215 7.58516 162.215 16.9416V42.1048C162.215 51.4404 154.636 59.012 145.275 59.0456C154.636 59.0791 162.215 66.6507 162.215 75.9863V101.149C162.215 110.506 154.603 118.091 145.212 118.091H98.1092C88.8659 118.091 81.3454 110.741 81.1127 101.587L81.1075 101.149C81.1074 110.506 73.4957 118.091 64.1058 118.091H17.0026C7.61249 118.091 8.99394e-05 110.506 0 101.149V75.9863C0.000182594 66.7761 7.37652 59.2825 16.5639 59.0508L17.0026 59.0456C7.61261 59.0456 0.000277162 51.461 0 42.1048V16.9416C0 7.58516 7.61244 0 17.0026 0H64.1058Z" fill="black"/>
</svg>
