<svg width="647" height="118" viewBox="0 0 647 118" fill="none" xmlns="http://www.w3.org/2000/svg">
<path fill-rule="evenodd" clip-rule="evenodd" d="M64.3703 0C73.4857 0.000147862 80.875 7.37889 80.875 16.4807L80.8803 16.0548C81.1063 7.14973 88.4068 0.000145551 97.3797 0H145.245C154.36 0 161.75 7.3788 161.75 16.4807C161.75 7.3788 169.14 0 178.255 0H242.625V42.5193C242.625 51.4789 235.465 58.7691 226.546 58.9947L226.12 59C235.236 59.0001 242.625 66.3789 242.625 75.4807V118H178.255C169.14 118 161.75 110.622 161.75 101.52C161.75 110.622 154.36 118 145.245 118H97.3797C88.2643 118 80.875 110.621 80.875 101.519C80.8749 110.621 73.4856 118 64.3703 118H16.5054C7.38995 118 0.000134621 110.622 0 101.52V75.4807C1.94736e-05 66.5211 7.16037 59.2316 16.0789 59.0059L16.5054 59C7.38987 59 0 51.6212 0 42.5193V16.4807C0 7.3788 7.38987 0 16.5054 0H64.3703ZM161.75 42.5193C161.75 51.6212 154.36 59 145.245 59L145.671 59.0053C154.59 59.231 161.75 66.5211 161.75 75.4807V42.5193Z" fill="black"/>
<path d="M306.996 0C316.094 0 323.472 7.35005 323.501 16.4274C323.529 7.35005 330.908 0 340.005 0H404.375V101.519C404.375 110.621 396.986 118 387.87 118H340.005C330.907 118 323.529 110.65 323.501 101.572C323.472 110.65 316.094 118 306.996 118H242.626V75.4807C242.626 66.5211 249.787 59.2309 258.705 59.0053L259.131 59C250.016 58.9998 242.626 51.6211 242.626 42.5193V0H306.996Z" fill="black"/>
<path fill-rule="evenodd" clip-rule="evenodd" d="M468.746 0C477.844 0 485.222 7.35005 485.251 16.4274C485.279 7.35005 492.658 0 501.755 0H630.495C639.61 0 647 7.3788 647 16.4807V42.5193C647 51.6212 639.61 59 630.495 59L630.921 59.0053C639.84 59.231 647 66.5211 647 75.4807V101.519C647 110.621 639.61 118 630.495 118H501.755C492.657 118 485.279 110.65 485.25 101.573C485.221 110.65 477.844 118 468.746 118H420.881C411.766 118 404.376 110.621 404.376 101.519V0H468.746ZM485.251 42.5719C485.222 51.6496 477.844 59 468.746 59L469.172 59.0053C478.073 59.2305 485.222 66.4922 485.25 75.4274C485.279 66.3501 492.657 59.0001 501.755 59C492.657 59 485.279 51.6496 485.251 42.5719Z" fill="black"/>
</svg>
