<svg width="593" height="118" viewBox="0 0 593 118" fill="none" xmlns="http://www.w3.org/2000/svg">
<path d="M63.7439 0C69.5511 0 74.8002 2.38636 78.5672 6.23056C82.3341 2.38551 87.5847 0 93.3928 0H136.383C142.19 0 147.44 2.38643 151.207 6.23115C154.974 2.38643 160.224 0 166.031 0H281.66C287.468 0 292.717 2.38643 296.484 6.23115C300.251 2.38643 305.501 0 311.309 0H426.937C432.745 0 437.995 2.38643 441.762 6.23115C445.529 2.38643 450.778 0 456.586 0H572.215C583.677 0 592.969 9.2921 592.969 20.7542V44.1761C592.969 49.9838 590.582 55.2332 586.738 59C590.582 62.7668 592.969 68.0162 592.969 73.8239V97.2458C592.969 108.708 583.677 118 572.215 118H456.586C450.778 118 445.529 115.613 441.762 111.768C437.995 115.613 432.745 118 426.937 118H383.948C378.139 118 372.889 115.614 369.122 111.769C365.355 115.613 360.106 118 354.299 118H311.309C305.501 118 300.251 115.613 296.484 111.768C292.717 115.613 287.468 118 281.66 118H166.031C160.224 118 154.974 115.613 151.207 111.768C147.44 115.613 142.19 118 136.383 118H93.3928C87.5846 118 82.3342 115.614 78.5672 111.769C74.8002 115.613 69.5513 118 63.7439 118H20.7542C9.2921 118 0 108.708 0 97.2458V73.8239C0 68.0163 2.38613 62.7668 6.23056 59C2.38613 55.2332 0 49.9837 0 44.1761V20.7542C0 9.2921 9.2921 0 20.7542 0H63.7439ZM20.7542 5.92968C12.567 5.92968 5.92968 12.567 5.92968 20.7542V44.1761C5.92968 52.3492 12.5439 58.9772 20.7116 59C12.5439 59.0228 5.92968 65.6508 5.92968 73.8239V97.2458C5.92968 105.433 12.567 112.07 20.7542 112.07H63.7439C71.931 112.07 78.5683 105.433 78.5683 97.2458L78.5731 97.6289C78.7761 105.639 85.3336 112.07 93.3928 112.07H136.383C144.57 112.07 151.207 105.433 151.207 97.2458C151.207 105.433 157.844 112.07 166.031 112.07H281.66C289.847 112.07 296.484 105.433 296.484 97.2458C296.484 105.433 303.122 112.07 311.309 112.07H354.299C362.486 112.07 369.123 105.433 369.123 97.2458L369.128 97.6289C369.331 105.639 375.888 112.07 383.948 112.07H426.937C435.124 112.07 441.762 105.433 441.762 97.2458C441.762 105.433 448.399 112.07 456.586 112.07H572.215C580.402 112.07 587.039 105.433 587.039 97.2458V73.8239C587.039 65.6508 580.425 59.0228 572.257 59C580.425 58.9772 587.039 52.3492 587.039 44.1761V20.7542C587.039 12.567 580.402 5.92968 572.215 5.92968H456.586C448.399 5.92968 441.762 12.567 441.762 20.7542C441.762 12.567 435.124 5.92968 426.937 5.92968H311.309C303.122 5.92968 296.484 12.567 296.484 20.7542C296.484 12.567 289.847 5.92968 281.66 5.92968H166.031C157.844 5.92968 151.207 12.567 151.207 20.7542C151.207 12.567 144.57 5.92968 136.383 5.92968H93.3928C85.3336 5.92968 78.7761 12.3608 78.5731 20.3711L78.5683 20.7542C78.5683 12.567 71.931 5.92968 63.7439 5.92968H20.7542ZM151.207 73.8239C151.207 65.6508 144.593 59.0228 136.425 59C144.593 58.9772 151.207 52.3492 151.207 44.1761V73.8239ZM223.85 44.5586C224.053 52.555 230.588 58.9775 238.628 59C230.588 59.0225 224.053 65.445 223.85 73.4414L223.846 73.8239C223.846 65.6508 217.231 59.0228 209.064 59C217.231 58.9772 223.846 52.3492 223.846 44.1761L223.85 44.5586ZM441.762 44.1761C441.762 52.3492 448.376 58.9772 456.544 59C448.376 59.0228 441.762 65.6508 441.762 73.8239C441.762 65.6508 435.148 59.0228 426.98 59C435.148 58.9772 441.762 52.3492 441.762 44.1761ZM441.762 58.6985C441.662 58.8 441.562 58.9005 441.46 59C441.562 59.0994 441.662 59.1995 441.762 59.3009C441.861 59.1996 441.961 59.0993 442.063 59C441.961 58.9006 441.861 58.7999 441.762 58.6985ZM223.845 58.6991C223.746 58.8004 223.646 58.9007 223.544 59C223.645 59.0992 223.746 59.1991 223.845 59.3003C223.944 59.1992 224.044 59.0991 224.145 59C224.044 58.9008 223.944 58.8003 223.845 58.6991Z" fill="black"/>
</svg>
