<svg width="322" height="236" viewBox="0 0 322 236" fill="none" xmlns="http://www.w3.org/2000/svg">
<path fill-rule="evenodd" clip-rule="evenodd" d="M59.6636 0C71.1712 3.04294e-05 80.5 9.33563 80.5 20.8517L80.5018 20.5821C80.6461 9.19027 89.9187 3.01916e-05 101.336 0H140.164C151.671 0 161 9.33561 161 20.8517C161 9.33561 170.329 0 181.836 0H301.164C312.671 0 322 9.33561 322 20.8517V96.8633C322 108.379 312.671 117.715 301.164 117.715C312.671 117.715 322 127.051 322 138.567V155.721C322 167.227 312.687 176.556 301.194 176.572C312.687 176.588 322 185.918 322 197.424V214.578C322 226.094 312.671 235.43 301.164 235.43H181.836C170.329 235.43 161 226.094 161 214.578C161 226.094 151.671 235.43 140.164 235.43H101.336C89.9187 235.429 80.6461 226.239 80.5018 214.847L80.5 214.578C80.5 226.094 71.1712 235.429 59.6636 235.43H20.8364C9.32876 235.43 0 226.094 0 214.578V138.567C0 127.051 9.32876 117.715 20.8364 117.715C9.32876 117.715 0 108.379 0 96.8633V79.7091C3.92489e-05 68.2831 9.18353 59.0037 20.567 58.8593L20.8364 58.8575C9.32878 58.8575 3.95581e-05 49.5218 0 38.0058V20.8517C0 9.33561 9.32876 0 20.8364 0H59.6636ZM161 155.721C161 167.227 151.687 176.556 140.194 176.572C151.687 176.588 161 185.918 161 197.424C161 185.918 170.313 176.588 181.806 176.572C170.313 176.556 161 167.227 161 155.721ZM161 38.0058C161 49.5218 151.671 58.8575 140.164 58.8575L140.433 58.8593C151.816 59.0037 161 68.2831 161 79.7091V38.0058ZM241.5 38.0058C241.5 49.4319 232.316 58.7114 220.933 58.8556L220.664 58.8575C232.171 58.8575 241.5 68.1931 241.5 79.7091L241.502 79.4397C241.646 68.0479 250.919 58.8575 262.336 58.8575L262.067 58.8556C250.773 58.7125 241.645 49.5774 241.502 38.2752L241.5 38.0058ZM101.336 117.715C89.9187 117.715 80.6461 108.525 80.5018 97.1329L80.5 96.8633C80.5 108.379 71.1712 117.715 59.6636 117.715H101.336ZM140.164 117.715C151.671 117.715 161 127.051 161 138.567C161 127.051 170.329 117.715 181.836 117.715C170.329 117.715 161 108.379 161 96.8633C161 108.379 151.671 117.715 140.164 117.715Z" fill="black"/>
</svg>
