<svg width="373" height="119" viewBox="0 0 373 119" fill="none" xmlns="http://www.w3.org/2000/svg">
<path d="M64.1055 0C73.4953 0.000198606 81.1072 7.58526 81.1074 16.9414L81.1123 16.5049C81.3449 7.35042 88.866 0.000195508 98.1094 0H145.213C154.603 0.000238286 162.215 7.58529 162.215 16.9414V42.1055C162.214 51.4408 154.636 59.0122 145.275 59.0459C154.637 59.0796 162.215 66.6509 162.215 75.9863V101.149C162.215 110.506 154.603 118.092 145.213 118.092H98.1094C88.8661 118.092 81.345 110.741 81.1123 101.587L81.1074 101.149C81.1073 110.506 73.4954 118.092 64.1055 118.092H17.0029C7.61285 118.092 8.99394e-05 110.506 0 101.149V75.9863C0.000321082 66.7763 7.37637 59.2827 16.5635 59.0508L17.0029 59.0459C7.61312 59.0459 0.000517176 51.4615 0 42.1055V16.9414C0.000262769 7.58514 7.61296 0 17.0029 0H64.1055Z" fill="black"/>
<path d="M238.264 73.293H246.016V79.667H238.264V100.365C238.264 101.265 238.289 102.04 238.339 102.69C238.439 103.34 238.614 103.891 238.865 104.341C239.166 104.791 239.593 105.141 240.145 105.391C240.696 105.591 241.45 105.69 242.403 105.69H244.209C244.811 105.64 245.414 105.541 246.016 105.391V111.989C245.062 112.089 244.134 112.19 243.23 112.29C242.327 112.39 241.399 112.439 240.446 112.439C238.189 112.439 236.357 112.24 234.952 111.84C233.598 111.39 232.519 110.765 231.716 109.965C230.963 109.115 230.436 108.065 230.135 106.815C229.884 105.566 229.734 104.14 229.684 102.54V79.667H224.045C224.717 80.9628 225.153 82.4627 225.352 84.167H216.396C215.994 82.1171 215.04 80.7419 213.535 80.042C212.08 79.3421 210.399 78.9922 208.492 78.9922C207.89 78.9922 207.162 79.0426 206.31 79.1426C205.507 79.2426 204.729 79.4422 203.977 79.7422C203.274 79.9922 202.672 80.3924 202.17 80.9424C201.668 81.4423 201.418 82.1171 201.418 82.9668C201.418 84.0167 201.769 84.8667 202.472 85.5166C203.224 86.1665 204.177 86.7171 205.331 87.167C206.535 87.567 207.89 87.9168 209.396 88.2168C210.901 88.5167 212.456 88.8415 214.062 89.1914C215.617 89.5414 217.148 89.9668 218.653 90.4668C220.158 90.9667 221.488 91.6415 222.642 92.4912C223.846 93.3411 224.8 94.416 225.502 95.7158C226.255 97.0157 226.631 98.6158 226.631 100.516C226.631 102.815 226.104 104.765 225.051 106.365C223.997 107.965 222.617 109.265 220.911 110.265C219.255 111.265 217.399 111.989 215.342 112.439C213.285 112.889 211.252 113.114 209.245 113.114C206.787 113.114 204.504 112.84 202.396 112.29C200.339 111.74 198.533 110.914 196.978 109.814C195.472 108.665 194.267 107.265 193.364 105.615C192.511 103.915 192.06 101.915 192.01 99.6152H200.59C200.841 102.115 201.794 103.865 203.45 104.865C205.106 105.865 207.088 106.365 209.396 106.365C210.198 106.365 211.102 106.315 212.105 106.215C213.159 106.065 214.137 105.815 215.04 105.465C215.943 105.115 216.671 104.616 217.223 103.966C217.825 103.266 218.101 102.366 218.051 101.266C218.001 100.166 217.599 99.2654 216.847 98.5654C216.094 97.8656 215.115 97.3159 213.911 96.916C212.757 96.4661 211.428 96.091 209.923 95.791C208.418 95.491 206.887 95.1664 205.331 94.8164C203.726 94.4664 202.17 94.041 200.665 93.541C199.21 93.0411 197.88 92.3665 196.676 91.5166C195.522 90.6668 194.594 89.5917 193.892 88.292C193.189 86.9421 192.838 85.2916 192.838 83.3418C192.838 81.2422 193.339 79.4926 194.343 78.0928C195.396 76.6429 196.701 75.4925 198.257 74.6426C199.862 73.7427 201.619 73.1175 203.525 72.7676C205.482 72.4177 207.339 72.2432 209.095 72.2432C211.102 72.2432 213.008 72.468 214.814 72.918C216.671 73.3179 218.327 73.9925 219.782 74.9424C221.155 75.8086 222.297 76.9249 223.211 78.29V73.293H229.684V61.6689H238.264V73.293Z" fill="black"/>
<path d="M254.747 97.0664C254.747 100.466 255.399 102.866 256.703 104.266C258.008 105.666 259.84 106.365 262.198 106.365C264.004 106.365 265.51 106.09 266.714 105.54C267.918 104.99 268.896 104.265 269.648 103.365C270.401 102.415 270.928 101.29 271.229 99.9902C271.581 98.6905 271.756 97.2907 271.756 95.791V73.293H280.336V112.064H271.907V106.665H271.756C270.702 108.615 269.122 110.19 267.015 111.39C264.957 112.54 262.85 113.114 260.692 113.114C255.575 113.114 251.862 111.865 249.554 109.365C247.296 106.815 246.167 102.99 246.167 97.8906V73.293H254.747V97.0664Z" fill="black"/>
<path fill-rule="evenodd" clip-rule="evenodd" d="M320.017 112.064H311.889V106.815H311.737C310.583 109.065 308.903 110.69 306.695 111.689C304.488 112.639 302.154 113.114 299.695 113.114C296.635 113.114 293.951 112.59 291.643 111.54C289.385 110.44 287.503 108.965 285.998 107.115C284.493 105.265 283.363 103.091 282.61 100.591C281.858 98.041 281.481 95.3158 281.481 92.416C281.481 88.9164 281.959 85.8915 282.912 83.3418C283.865 80.7923 285.12 78.6927 286.675 77.043C288.28 75.3931 290.087 74.1923 292.094 73.4424C294.151 72.6424 296.233 72.2432 298.341 72.2432C299.545 72.2432 300.774 72.3682 302.028 72.6182C303.283 72.8181 304.488 73.168 305.642 73.668C306.796 74.1679 307.849 74.8173 308.803 75.6172C309.806 76.3671 310.634 77.2675 311.286 78.3174H311.437V58.5186H320.017V112.064ZM300.975 78.9922C298.968 78.9922 297.262 79.4177 295.857 80.2676C294.503 81.0675 293.374 82.1423 292.471 83.4922C291.618 84.792 290.99 86.2915 290.589 87.9912C290.238 89.641 290.062 91.3411 290.062 93.0908C290.062 94.7407 290.263 96.366 290.664 97.9658C291.116 99.5657 291.768 100.99 292.621 102.24C293.524 103.49 294.653 104.49 296.008 105.24C297.362 105.99 298.968 106.365 300.824 106.365C302.731 106.365 304.362 105.965 305.717 105.165C307.122 104.365 308.251 103.315 309.104 102.016C310.007 100.716 310.659 99.2659 311.061 97.666C311.512 96.0163 311.737 94.3414 311.737 92.6416C311.737 88.3419 310.76 84.9916 308.803 82.5918C306.896 80.192 304.286 78.9922 300.975 78.9922Z" fill="black"/>
<path fill-rule="evenodd" clip-rule="evenodd" d="M353.324 72.2432C356.435 72.2432 359.194 72.7676 361.603 73.8174C364.061 74.8173 366.119 76.2177 367.774 78.0176C369.48 79.8174 370.76 81.967 371.613 84.4668C372.516 86.9666 372.968 89.6918 372.968 92.6416C372.968 95.6412 372.516 98.3909 371.613 100.891C370.76 103.39 369.48 105.54 367.774 107.34C366.119 109.14 364.061 110.565 361.603 111.615C359.194 112.615 356.435 113.114 353.324 113.114C350.213 113.114 347.428 112.615 344.97 111.615C342.561 110.565 340.504 109.14 338.798 107.34C337.142 105.54 335.863 103.39 334.96 100.891C334.107 98.3909 333.68 95.6412 333.68 92.6416C333.68 89.6918 334.107 86.9666 334.96 84.4668C335.863 81.9672 337.142 79.8173 338.798 78.0176C340.504 76.2177 342.561 74.8173 344.97 73.8174C347.428 72.7675 350.213 72.2432 353.324 72.2432ZM353.324 78.9922C351.418 78.9922 349.761 79.3924 348.356 80.1924C346.952 80.9923 345.798 82.042 344.895 83.3418C343.991 84.5916 343.314 86.0417 342.862 87.6914C342.461 89.3413 342.26 90.9917 342.26 92.6416C342.26 94.3414 342.461 96.0163 342.862 97.666C343.314 99.2658 343.991 100.716 344.895 102.016C345.798 103.315 346.952 104.365 348.356 105.165C349.761 105.965 351.418 106.365 353.324 106.365C355.231 106.365 356.886 105.965 358.291 105.165C359.696 104.365 360.85 103.315 361.753 102.016C362.656 100.716 363.309 99.2658 363.71 97.666C364.162 96.0163 364.388 94.3414 364.388 92.6416C364.388 90.9917 364.162 89.3413 363.71 87.6914C363.309 86.0417 362.656 84.5916 361.753 83.3418C360.85 82.0421 359.696 80.9922 358.291 80.1924C356.886 79.3925 355.231 78.9922 353.324 78.9922Z" fill="black"/>
<path d="M332.159 112.064H323.579V73.293H332.159V112.064Z" fill="black"/>
<path d="M332.159 66.6182H323.579V58.5186H332.159V66.6182Z" fill="black"/>
<path fill-rule="evenodd" clip-rule="evenodd" d="M246.358 4.75C249.469 4.75001 252.229 5.27529 254.638 6.3252C257.096 7.32511 259.153 8.72561 260.809 10.5254C262.515 12.3252 263.794 14.4748 264.647 16.9746C265.551 19.4743 266.002 22.1989 266.002 25.1484C266.002 28.1482 265.551 30.8986 264.647 33.3984C263.794 35.8981 262.515 38.0479 260.809 39.8477C259.153 41.6473 257.096 43.0722 254.638 44.1221C252.229 45.122 249.469 45.6221 246.358 45.6221C243.248 45.6221 240.463 45.122 238.004 44.1221C235.596 43.0722 233.538 41.6475 231.832 39.8477C230.176 38.0479 228.897 35.898 227.994 33.3984C227.141 30.8986 226.715 28.1482 226.715 25.1484C226.715 22.1988 227.141 19.4743 227.994 16.9746C228.897 14.475 230.176 12.3252 231.832 10.5254C233.538 8.72556 235.596 7.32511 238.004 6.3252C240.463 5.27528 243.248 4.75 246.358 4.75ZM246.358 11.5C244.452 11.5 242.796 11.9003 241.391 12.7002C239.986 13.5001 238.832 14.5498 237.929 15.8496C237.026 17.0995 236.348 18.5494 235.896 20.1992C235.495 21.8489 235.295 23.4987 235.295 25.1484C235.295 26.8481 235.495 28.5231 235.896 30.1729C236.348 31.7727 237.026 33.2235 237.929 34.5234C238.832 35.8232 239.986 36.873 241.391 37.6729C242.796 38.4728 244.452 38.873 246.358 38.873C248.265 38.873 249.921 38.4728 251.326 37.6729C252.731 36.873 253.885 35.8232 254.788 34.5234C255.691 33.2235 256.344 31.7727 256.745 30.1729C257.197 28.5232 257.422 26.8481 257.422 25.1484C257.422 23.4987 257.197 21.8489 256.745 20.1992C256.344 18.5494 255.691 17.0995 254.788 15.8496C253.885 14.5499 252.731 13.5001 251.326 12.7002C249.921 11.9003 248.265 11.5 246.358 11.5Z" fill="black"/>
<path d="M302.53 4.75C304.537 4.75 306.444 4.97585 308.25 5.42578C310.107 5.82575 311.763 6.50027 313.218 7.4502C314.723 8.40012 315.952 9.65033 316.905 11.2002C317.909 12.7001 318.536 14.525 318.787 16.6748H309.831C309.43 14.625 308.476 13.2497 306.971 12.5498C305.516 11.8499 303.834 11.5 301.928 11.5C301.326 11.5 300.598 11.5494 299.745 11.6494C298.942 11.7494 298.165 11.9501 297.412 12.25C296.71 12.4999 296.108 12.8996 295.606 13.4492C295.105 13.9492 294.854 14.6247 294.854 15.4746C294.854 16.5245 295.205 17.3745 295.907 18.0244C296.66 18.6743 297.614 19.2239 298.768 19.6738C299.972 20.0737 301.326 20.4237 302.831 20.7236C304.336 21.0236 305.892 21.3492 307.498 21.6992C309.053 22.0492 310.584 22.4737 312.089 22.9736C313.594 23.4736 314.924 24.1491 316.078 24.999C317.282 25.8489 318.235 26.9239 318.938 28.2236C319.69 29.5235 320.066 31.1236 320.066 33.0234C320.066 35.3231 319.54 37.2733 318.486 38.873C317.433 40.4728 316.053 41.7726 314.347 42.7725C312.691 43.7723 310.834 44.4973 308.777 44.9473C306.72 45.3972 304.688 45.6221 302.681 45.6221C300.222 45.6221 297.939 45.3468 295.832 44.7969C293.775 44.2469 291.969 43.4221 290.413 42.3223C288.908 41.1724 287.703 39.7729 286.8 38.123C285.947 36.4232 285.495 34.4229 285.445 32.123H294.025C294.276 34.6228 295.23 36.3731 296.886 37.373C298.541 38.3728 300.523 38.873 302.831 38.873C303.634 38.873 304.537 38.8226 305.541 38.7227C306.595 38.5727 307.573 38.3226 308.477 37.9727C309.38 37.6227 310.107 37.1225 310.659 36.4727C311.261 35.7728 311.536 34.873 311.486 33.7734C311.436 32.6735 311.035 31.7732 310.282 31.0732C309.53 30.3735 308.552 29.8238 307.348 29.4238C306.194 28.9739 304.864 28.5988 303.358 28.2988C301.853 27.9989 300.323 27.6732 298.768 27.3232C297.162 26.9733 295.606 26.5488 294.101 26.0488C292.646 25.5489 291.316 24.8733 290.111 24.0234C288.958 23.1736 288.03 22.0985 287.327 20.7988C286.625 19.449 286.273 17.7993 286.273 15.8496C286.273 14.7579 286.409 13.7609 286.681 12.8584C286.531 12.8522 286.381 12.8496 286.231 12.8496C284.776 12.8496 283.396 13.1501 282.092 13.75C280.837 14.3 279.734 15.1499 278.78 16.2998C277.827 17.3996 277.074 18.7741 276.522 20.4238C275.971 22.0737 275.694 23.9742 275.694 26.124V44.5723H267.114V5.7998H275.167V13.2998H275.317C275.568 12.2499 276.046 11.2245 276.748 10.2246C277.501 9.2249 278.379 8.32519 279.382 7.52539C280.435 6.67551 281.589 5.99995 282.844 5.5C284.098 5.00004 285.378 4.75 286.683 4.75C287.686 4.75 288.364 4.7752 288.715 4.8252C289.116 4.87519 289.518 4.92559 289.919 4.97559V8.33691C290.469 7.89187 291.06 7.49615 291.692 7.15039C293.298 6.25046 295.054 5.62536 296.961 5.27539C298.918 4.92544 300.774 4.75 302.53 4.75Z" fill="black"/>
<path d="M209.621 17.7246L218.126 5.7998H228.061L214.814 23.7236L229.717 44.5723H219.405L209.546 30.248L199.987 44.5723H189.902L204.579 24.1738L191.106 5.7998H201.493L209.621 17.7246Z" fill="black"/>
</svg>
