<svg width="373" height="118" viewBox="0 0 373 118" fill="none" xmlns="http://www.w3.org/2000/svg">
<path fill-rule="evenodd" clip-rule="evenodd" d="M66.1514 0C71.1367 0 75.6432 2.04842 78.877 5.34863C82.1107 2.04824 86.618 0 91.6035 0H139.938C149.624 0 157.505 7.72868 157.749 17.3555L157.755 17.8154V46.2744C157.755 51.2601 155.705 55.7663 152.404 59C155.705 62.2336 157.755 66.7398 157.755 71.7256V100.185C157.755 110.024 149.778 118 139.938 118H91.6035C86.6179 118 82.1107 115.951 78.877 112.65C75.6432 115.951 71.1369 118 66.1514 118H17.8164C7.9773 118 9.59243e-05 110.024 0 100.185V71.7256C0.000100877 66.7399 2.04904 62.2335 5.34961 59C2.04908 55.7663 6.51861e-05 51.26 0 46.2744V17.8154C0.000222903 7.9761 7.9773 0 17.8164 0H66.1514ZM17.8164 5.08984C10.7884 5.08984 5.09001 10.7874 5.08984 17.8154V46.2744C5.08997 53.3024 10.7884 59.001 17.8164 59.001C10.7884 59.001 5.09002 64.6976 5.08984 71.7256V100.185C5.08992 107.213 10.7883 112.91 17.8164 112.91H66.1514C73.1794 112.91 78.8769 107.213 78.877 100.185C78.877 107.213 84.5754 112.91 91.6035 112.91H139.938C146.967 112.91 152.664 107.213 152.664 100.185V71.7256C152.664 64.6976 146.966 59.001 139.938 59.001C146.967 59.001 152.664 53.3024 152.664 46.2744V17.8154C152.664 10.7874 146.966 5.08984 139.938 5.08984H91.6035C84.5755 5.08984 78.8771 10.7874 78.877 17.8154C78.8768 10.7874 73.1794 5.08984 66.1514 5.08984H17.8164Z" fill="black"/>
<path d="M238.035 72.9609H245.787V79.335H238.035V100.033C238.035 100.933 238.06 101.708 238.11 102.358C238.211 103.008 238.386 103.559 238.637 104.009C238.938 104.459 239.364 104.809 239.916 105.059C240.468 105.259 241.221 105.358 242.175 105.358H243.98C244.583 105.308 245.185 105.209 245.787 105.059V111.657C244.834 111.757 243.905 111.858 243.002 111.958C242.099 112.058 241.171 112.107 240.218 112.107C237.96 112.107 236.129 111.908 234.724 111.508C233.369 111.058 232.29 110.433 231.487 109.633C230.735 108.783 230.207 107.733 229.906 106.483C229.655 105.233 229.505 103.808 229.455 102.208V79.335H223.816C224.488 80.6308 224.924 82.1307 225.123 83.835H216.167C215.766 81.7851 214.812 80.4099 213.307 79.71C211.852 79.01 210.17 78.6602 208.264 78.6602C207.662 78.6602 206.934 78.7106 206.081 78.8105C205.278 78.9106 204.501 79.1102 203.748 79.4102C203.046 79.6601 202.443 80.0604 201.941 80.6104C201.44 81.1102 201.19 81.7851 201.189 82.6348C201.189 83.6847 201.541 84.5346 202.243 85.1846C202.996 85.8345 203.949 86.385 205.103 86.835C206.307 87.2349 207.662 87.5848 209.167 87.8848C210.672 88.1847 212.228 88.5094 213.833 88.8594C215.388 89.2093 216.92 89.6348 218.425 90.1348C219.93 90.6347 221.259 91.3094 222.413 92.1592C223.617 93.0091 224.571 94.084 225.273 95.3838C226.026 96.6837 226.402 98.2838 226.402 100.184C226.402 102.483 225.876 104.433 224.822 106.033C223.769 107.633 222.388 108.933 220.683 109.933C219.027 110.932 217.17 111.657 215.113 112.107C213.056 112.557 211.024 112.782 209.017 112.782C206.558 112.782 204.275 112.508 202.168 111.958C200.111 111.408 198.304 110.582 196.749 109.482C195.244 108.333 194.039 106.933 193.136 105.283C192.283 103.583 191.831 101.583 191.781 99.2832H200.361C200.612 101.783 201.566 103.533 203.222 104.533C204.877 105.533 206.859 106.033 209.167 106.033C209.97 106.033 210.873 105.983 211.877 105.883C212.93 105.733 213.909 105.483 214.812 105.133C215.714 104.783 216.442 104.284 216.994 103.634C217.596 102.934 217.872 102.033 217.822 100.934C217.772 99.8337 217.371 98.9333 216.618 98.2334C215.866 97.5335 214.887 96.9839 213.683 96.584C212.529 96.1341 211.199 95.7589 209.694 95.459C208.189 95.159 206.658 94.8343 205.103 94.4844C203.497 94.1344 201.942 93.7089 200.437 93.209C198.981 92.709 197.651 92.0345 196.447 91.1846C195.293 90.3347 194.366 89.2596 193.663 87.96C192.961 86.6101 192.609 84.9596 192.609 83.0098C192.609 80.9102 193.111 79.1605 194.114 77.7607C195.168 76.3109 196.473 75.1605 198.028 74.3105C199.634 73.4107 201.39 72.7855 203.297 72.4355C205.254 72.0856 207.11 71.9111 208.866 71.9111C210.873 71.9111 212.78 72.136 214.586 72.5859C216.442 72.9859 218.099 73.6604 219.554 74.6104C220.926 75.4766 222.069 76.5929 222.982 77.958V72.9609H229.455V61.3369H238.035V72.9609Z" fill="black"/>
<path d="M254.519 96.7344C254.519 100.134 255.17 102.534 256.475 103.934C257.779 105.333 259.611 106.033 261.97 106.033C263.776 106.033 265.281 105.758 266.485 105.208C267.689 104.658 268.667 103.933 269.42 103.033C270.173 102.083 270.7 100.958 271.001 99.6582C271.352 98.3584 271.527 96.9587 271.527 95.459V72.9609H280.107V111.732H271.679V106.333H271.527C270.474 108.283 268.893 109.858 266.786 111.058C264.729 112.208 262.621 112.782 260.464 112.782C255.346 112.782 251.633 111.533 249.325 109.033C247.067 106.483 245.938 102.658 245.938 97.5586V72.9609H254.519V96.7344Z" fill="black"/>
<path fill-rule="evenodd" clip-rule="evenodd" d="M319.788 111.732H311.66V106.483H311.509C310.355 108.733 308.674 110.358 306.467 111.357C304.259 112.307 301.925 112.782 299.467 112.782C296.406 112.782 293.722 112.258 291.414 111.208C289.156 110.108 287.275 108.633 285.77 106.783C284.264 104.933 283.134 102.759 282.382 100.259C281.629 97.709 281.253 94.9838 281.253 92.084C281.253 88.5844 281.73 85.5595 282.684 83.0098C283.637 80.4603 284.891 78.3607 286.446 76.7109C288.052 75.0611 289.858 73.8603 291.865 73.1104C293.922 72.3104 296.005 71.9111 298.112 71.9111C299.316 71.9111 300.546 72.0362 301.8 72.2861C303.054 72.4861 304.259 72.836 305.413 73.3359C306.567 73.8359 307.621 74.4853 308.574 75.2852C309.578 76.0351 310.405 76.9354 311.058 77.9854H311.208V58.1865H319.788V111.732ZM300.746 78.6602C298.739 78.6602 297.034 79.0857 295.629 79.9355C294.274 80.7355 293.145 81.8103 292.242 83.1602C291.389 84.4599 290.762 85.9595 290.36 87.6592C290.009 89.3089 289.833 91.0091 289.833 92.7588C289.833 94.4087 290.034 96.0339 290.436 97.6338C290.887 99.2336 291.54 100.658 292.393 101.908C293.296 103.158 294.425 104.158 295.779 104.908C297.134 105.658 298.739 106.033 300.596 106.033C302.502 106.033 304.134 105.633 305.488 104.833C306.893 104.033 308.022 102.983 308.875 101.684C309.778 100.384 310.431 98.9338 310.832 97.334C311.284 95.6842 311.509 94.0093 311.509 92.3096C311.509 88.0099 310.531 84.6596 308.574 82.2598C306.668 79.86 304.058 78.6602 300.746 78.6602Z" fill="black"/>
<path fill-rule="evenodd" clip-rule="evenodd" d="M353.096 71.9111C356.206 71.9112 358.966 72.4356 361.374 73.4854C363.833 74.4853 365.89 75.8857 367.546 77.6855C369.252 79.4854 370.532 81.635 371.385 84.1348C372.288 86.6346 372.739 89.3598 372.739 92.3096C372.739 95.3092 372.288 98.0589 371.385 100.559C370.532 103.058 369.252 105.208 367.546 107.008C365.89 108.808 363.833 110.233 361.374 111.283C358.966 112.283 356.206 112.782 353.096 112.782C349.985 112.782 347.2 112.283 344.741 111.283C342.333 110.233 340.275 108.808 338.569 107.008C336.914 105.208 335.635 103.058 334.731 100.559C333.878 98.0589 333.451 95.3092 333.451 92.3096C333.451 89.3598 333.878 86.6346 334.731 84.1348C335.635 81.6351 336.914 79.4853 338.569 77.6855C340.275 75.8857 342.333 74.4853 344.741 73.4854C347.2 72.4355 349.985 71.9111 353.096 71.9111ZM353.096 78.6602C351.189 78.6602 349.533 79.0604 348.128 79.8604C346.723 80.6602 345.569 81.71 344.666 83.0098C343.763 84.2596 343.085 85.7096 342.634 87.3594C342.232 89.0092 342.031 90.6597 342.031 92.3096C342.031 94.0093 342.232 95.6842 342.634 97.334C343.085 98.9338 343.763 100.384 344.666 101.684C345.569 102.983 346.723 104.033 348.128 104.833C349.533 105.633 351.189 106.033 353.096 106.033C355.002 106.033 356.658 105.633 358.062 104.833C359.467 104.033 360.621 102.983 361.524 101.684C362.428 100.384 363.08 98.9338 363.481 97.334C363.933 95.6842 364.159 94.0093 364.159 92.3096C364.159 90.6597 363.933 89.0092 363.481 87.3594C363.08 85.7096 362.428 84.2596 361.524 83.0098C360.621 81.71 359.467 80.6602 358.062 79.8604C356.658 79.0605 355.002 78.6602 353.096 78.6602Z" fill="black"/>
<path d="M331.931 111.732H323.351V72.9609H331.931V111.732Z" fill="black"/>
<path d="M331.931 66.2861H323.351V58.1865H331.931V66.2861Z" fill="black"/>
<path fill-rule="evenodd" clip-rule="evenodd" d="M246.13 4.41797C249.241 4.41798 252.001 4.94326 254.409 5.99316C256.868 6.99308 258.924 8.39358 260.58 10.1934C262.286 11.9932 263.566 14.1428 264.419 16.6426C265.322 19.1422 265.773 21.8668 265.773 24.8164C265.773 27.8162 265.322 30.5666 264.419 33.0664C263.566 35.5661 262.286 37.7158 260.58 39.5156C258.924 41.3153 256.868 42.7402 254.409 43.79C252.001 44.79 249.241 45.29 246.13 45.29C243.019 45.29 240.234 44.79 237.775 43.79C235.367 42.7401 233.309 41.3154 231.604 39.5156C229.948 37.7159 228.669 35.566 227.766 33.0664C226.913 30.5666 226.486 27.8162 226.486 24.8164C226.486 21.8668 226.913 19.1423 227.766 16.6426C228.669 14.143 229.948 11.9931 231.604 10.1934C233.309 8.39353 235.367 6.99308 237.775 5.99316C240.234 4.94325 243.019 4.41797 246.13 4.41797ZM246.13 11.168C244.223 11.168 242.567 11.5682 241.162 12.3682C239.757 13.1681 238.603 14.2178 237.7 15.5176C236.797 16.7674 236.12 18.2174 235.668 19.8672C235.267 21.5169 235.066 23.1667 235.066 24.8164C235.066 26.5161 235.267 28.1911 235.668 29.8408C236.12 31.4407 236.797 32.8915 237.7 34.1914C238.603 35.4911 239.757 36.541 241.162 37.3408C242.567 38.1408 244.223 38.541 246.13 38.541C248.037 38.541 249.693 38.1407 251.098 37.3408C252.502 36.5409 253.656 35.4911 254.56 34.1914C255.463 32.8915 256.115 31.4407 256.517 29.8408C256.968 28.1911 257.193 26.5161 257.193 24.8164C257.193 23.1667 256.968 21.5169 256.517 19.8672C256.115 18.2174 255.463 16.7674 254.56 15.5176C253.657 14.2178 252.502 13.1681 251.098 12.3682C249.693 11.5682 248.037 11.168 246.13 11.168Z" fill="black"/>
<path d="M302.302 4.41797C304.309 4.41797 306.215 4.64382 308.021 5.09375C309.878 5.49372 311.534 6.16824 312.989 7.11816C314.495 8.06809 315.723 9.3183 316.677 10.8682C317.68 12.368 318.308 14.193 318.559 16.3428H309.603C309.201 14.2929 308.247 12.9177 306.742 12.2178C305.287 11.5179 303.606 11.168 301.699 11.168C301.097 11.168 300.369 11.2174 299.517 11.3174C298.714 11.4174 297.936 11.618 297.184 11.918C296.481 12.1679 295.88 12.5675 295.378 13.1172C294.876 13.6171 294.625 14.2926 294.625 15.1426C294.625 16.1924 294.976 17.0425 295.679 17.6924C296.431 18.3423 297.385 18.8919 298.539 19.3418C299.743 19.7417 301.098 20.0917 302.603 20.3916C304.108 20.6916 305.664 21.0172 307.27 21.3672C308.825 21.7171 310.355 22.1417 311.86 22.6416C313.366 23.1416 314.696 23.8171 315.85 24.667C317.054 25.5169 318.007 26.5918 318.709 27.8916C319.462 29.1915 319.838 30.7916 319.838 32.6914C319.838 34.9911 319.311 36.9412 318.258 38.541C317.204 40.1408 315.824 41.4406 314.118 42.4404C312.462 43.4403 310.606 44.1653 308.549 44.6152C306.492 45.0652 304.459 45.29 302.452 45.29C299.994 45.29 297.711 45.0148 295.604 44.4648C293.546 43.9149 291.74 43.0901 290.185 41.9902C288.679 40.8403 287.474 39.4408 286.571 37.791C285.718 36.0912 285.267 34.0908 285.217 31.791H293.797C294.048 34.2908 295.001 36.0411 296.657 37.041C298.313 38.0408 300.295 38.541 302.603 38.541C303.405 38.541 304.309 38.4906 305.312 38.3906C306.366 38.2406 307.345 37.9906 308.248 37.6406C309.151 37.2907 309.879 36.7905 310.431 36.1406C311.033 35.4408 311.308 34.541 311.258 33.4414C311.208 32.3415 310.806 31.4412 310.054 30.7412C309.301 30.0414 308.323 29.4917 307.119 29.0918C305.965 28.6419 304.635 28.2668 303.13 27.9668C301.625 27.6668 300.094 27.3412 298.539 26.9912C296.933 26.6412 295.377 26.2168 293.872 25.7168C292.417 25.2168 291.087 24.5413 289.883 23.6914C288.729 22.8415 287.801 21.7665 287.099 20.4668C286.396 19.117 286.045 17.4673 286.045 15.5176C286.045 14.4259 286.181 13.4289 286.452 12.5264C286.302 12.5202 286.153 12.5176 286.003 12.5176C284.548 12.5176 283.168 12.818 281.863 13.418C280.609 13.9679 279.505 14.8179 278.552 15.9678C277.599 17.0676 276.846 18.4421 276.294 20.0918C275.742 21.7417 275.466 23.6422 275.466 25.792V44.2402H266.886V5.46777H274.938V12.9678H275.089C275.34 11.9179 275.817 10.8925 276.52 9.89258C277.272 8.89287 278.15 7.99316 279.153 7.19336C280.207 6.34348 281.361 5.66792 282.615 5.16797C283.87 4.66801 285.15 4.41797 286.454 4.41797C287.458 4.41797 288.135 4.44317 288.486 4.49316C288.888 4.54315 289.289 4.59356 289.69 4.64355V8.00488C290.24 7.55983 290.831 7.16412 291.464 6.81836C293.069 5.91843 294.826 5.29333 296.732 4.94336C298.689 4.59341 300.546 4.41797 302.302 4.41797Z" fill="black"/>
<path d="M209.393 17.3926L217.897 5.46777H227.832L214.586 23.3916L229.488 44.2402H219.177L209.317 29.916L199.759 44.2402H189.674L204.351 23.8418L190.878 5.46777H201.265L209.393 17.3926Z" fill="black"/>
</svg>
